<svg width="527" height="533" viewBox="0 0 527 533" fill="none" xmlns="http://www.w3.org/2000/svg">
<g clip-path="url(#clip0_6_27)">
<path d="M451 352.333C451 375.896 431.896 395 408.333 395H152.333C128.771 395 109.667 375.896 109.667 352.333V142.339C109.667 118.776 171.437 75 195 75H393.667C426.669 75 451 99.6613 451 132.333V352.333Z" fill="#226699"/>
<path d="M429.667 395C429.667 418.563 410.563 437.667 387 437.667H173.667C150.104 437.667 131 418.563 131 395V139C131 95.064 130.776 96.3333 184.333 96.3333H387C410.563 96.3333 429.667 115.437 429.667 139V395Z" fill="url(#paint0_linear_6_27)"/>
<path d="M408.333 405.667C408.333 423.341 394.008 437.667 376.333 437.667H141.667C123.992 437.667 109.667 423.341 109.667 405.667V149.667C109.667 131.992 123.992 117.667 141.667 117.667H376.333C394.008 117.667 408.333 131.992 408.333 149.667V405.667Z" fill="#E1E8ED"/>
<path d="M158.115 426.776C158.115 434.264 151 440.333 142.221 440.333C133.453 440.333 126.339 434.264 126.339 426.776C126.339 419.299 133.453 413.219 142.221 413.219C151 413.219 158.115 419.288 158.115 426.776Z" fill="#662113"/>
<path d="M140.536 419.224C135.416 419.811 132.088 423.224 129.688 427C126.413 432.173 118.947 437.667 109.667 437.667C97.8906 437.667 88.3333 430.509 88.3333 421.667C88.3333 412.824 97.8906 405.667 109.667 405.667V384.376C86.552 384.6 67.8853 401.176 67.8853 421.667C67.8853 442.296 86.7866 459 110.104 459C129.88 459 145.805 447.853 151.715 431.597C154.669 423.501 146.712 418.541 140.536 419.224Z" fill="url(#paint1_linear_6_27)"/>
<path d="M158.115 341.443C158.115 348.931 151 355 142.221 355C133.453 355 126.339 348.931 126.339 341.443C126.339 333.965 133.453 327.885 142.221 327.885C151 327.885 158.115 333.955 158.115 341.443Z" fill="#662113"/>
<path d="M140.536 333.891C135.416 334.477 132.088 337.891 129.688 341.667C126.413 346.84 118.947 352.333 109.667 352.333C97.8906 352.333 88.3333 345.176 88.3333 336.333C88.3333 327.491 97.8906 320.333 109.667 320.333V299.043C86.552 299.267 67.8853 315.843 67.8853 336.333C67.8853 356.963 86.7866 373.667 110.104 373.667C129.88 373.667 145.805 362.52 151.715 346.264C154.669 338.168 146.712 333.208 140.536 333.891Z" fill="url(#paint2_linear_6_27)"/>
<path d="M158.115 256.109C158.115 263.597 151 269.667 142.221 269.667C133.453 269.667 126.339 263.597 126.339 256.109C126.339 248.632 133.453 242.552 142.221 242.552C151 242.552 158.115 248.621 158.115 256.109Z" fill="#662113"/>
<path d="M140.536 248.557C135.416 249.144 132.088 252.557 129.688 256.333C126.413 261.507 118.947 267 109.667 267C97.8906 267 88.3333 259.843 88.3333 251C88.3333 242.157 97.8906 235 109.667 235V213.709C86.552 213.933 67.8853 230.509 67.8853 251C67.8853 271.629 86.7866 288.333 110.104 288.333C129.88 288.333 145.805 277.187 151.715 260.931C154.669 252.835 146.712 247.875 140.536 248.557Z" fill="url(#paint3_linear_6_27)"/>
<path d="M158.115 170.776C158.115 178.264 151 184.333 142.221 184.333C133.453 184.333 126.339 178.264 126.339 170.776C126.339 163.299 133.453 157.219 142.221 157.219C151 157.219 158.115 163.288 158.115 170.776Z" fill="#662113"/>
<path d="M140.536 163.224C135.416 163.811 132.088 167.224 129.688 171C126.413 176.173 118.947 181.667 109.667 181.667C97.8906 181.667 88.3333 174.509 88.3333 165.667C88.3333 156.824 97.8906 149.667 109.667 149.667V128.376C86.5626 128.589 67.8853 145.176 67.8853 165.667C67.8853 186.296 86.7866 203 110.104 203C129.88 203 145.805 191.853 151.715 175.597C154.669 167.501 146.712 162.541 140.536 163.224Z" fill="url(#paint4_linear_6_27)"/>
<path d="M281 300.771C192.496 300.771 120.756 298.646 120.756 361.47C120.756 424.266 192.496 438.556 281 438.556C369.504 438.556 441.244 424.266 441.244 361.47C441.244 298.655 369.504 300.771 281 300.771Z" fill="#D99E82"/>
<path d="M436.55 305.54C436.55 305.54 358.926 296.247 281 295.85C203.074 296.247 125.45 305.54 125.45 305.54C117.772 366.683 181.522 391.872 281 391.872C380.478 391.872 444.228 366.683 436.55 305.54Z" fill="#662113"/>
<path d="M431.035 281.098L130.182 287.199C119.793 287.199 111.095 308.251 122.116 313.757C204.358 339.332 270.47 365.21 270.47 365.21C279.555 370.234 282.625 370.253 291.72 365.238C291.72 365.238 383.009 328.707 441.65 313.36C449.971 311.188 441.414 281.098 431.035 281.098Z" fill="#FFCC4D"/>
<path d="M438.958 281.891C421.014 265.354 422.053 274.156 408.302 270.274C403.079 268.801 365.707 220.493 280.528 220.493H280.339C195.159 220.493 157.788 268.801 152.565 270.274C138.814 274.156 139.853 265.354 121.908 281.891C113.673 289.484 111.444 293.432 120.133 295.397C133.223 298.353 132.033 306.277 141.411 309.034C152.763 312.368 157.429 306.277 175.732 308.77C191.344 310.895 192.364 331.144 208.117 331.144C223.871 331.144 223.871 323.588 239.614 323.588C255.358 323.588 264.671 343.856 280.424 343.856C296.177 343.856 305.48 323.588 321.233 323.588C336.987 323.588 336.987 331.144 352.731 331.144C368.484 331.144 369.504 310.895 385.116 308.77C403.419 306.286 408.094 312.368 419.437 309.034C428.815 306.277 427.625 298.362 440.715 295.397C449.423 293.442 447.203 289.484 438.958 281.891Z" fill="#77B255"/>
<path d="M432.838 264.022C432.838 292.204 364.857 305.512 281 305.512C197.143 305.512 129.162 292.204 129.162 264.022C129.162 212.994 138.285 212.994 281 212.994C423.715 212.994 432.838 213.003 432.838 264.022Z" fill="#DD2E44"/>
<path d="M281 112.949C192.496 112.949 120.756 154.419 120.756 217.234C120.756 275.082 192.496 277.443 281 277.443C369.504 277.443 441.244 275.082 441.244 217.234C441.244 154.41 369.504 112.949 281 112.949Z" fill="#D99E82"/>
<path d="M212.849 142.897C208.146 139.884 201.903 141.263 198.899 145.967C195.896 150.67 197.266 156.922 201.969 159.916C206.672 162.929 218.591 165.177 221.604 160.473C224.607 155.77 217.552 145.901 212.849 142.897ZM304.781 133.122C299.473 134.841 290.152 142.623 291.88 147.931C293.608 153.239 305.707 154.051 311.014 152.332C316.322 150.613 319.222 144.909 317.493 139.601C315.774 134.303 310.07 131.394 304.781 133.122ZM407.811 199.564C403.542 195.975 392.841 201.689 389.243 205.958C385.654 210.236 386.211 216.602 390.48 220.191C394.749 223.779 401.124 223.222 404.713 218.953C408.311 214.675 412.089 203.153 407.811 199.564ZM373.404 152.342C368.701 149.338 362.458 150.717 359.446 155.421C356.442 160.124 357.821 166.367 362.524 169.37C367.228 172.383 379.147 174.631 382.15 169.927C385.163 165.214 378.108 155.345 373.404 152.342ZM231.738 218.453C227.034 215.449 220.792 216.828 217.779 221.532C214.776 226.226 216.154 232.478 220.858 235.472C225.561 238.484 237.48 240.742 240.483 236.029C243.496 231.326 236.441 221.456 231.738 218.453ZM260.506 173.044C257.332 177.634 254.65 189.468 259.249 192.641C263.839 195.814 273.954 189.109 277.128 184.519C280.301 179.929 279.139 173.639 274.549 170.466C269.969 167.292 263.669 168.454 260.506 173.044ZM335.627 218.453C330.923 215.449 324.681 216.828 321.668 221.532C318.664 226.226 320.043 232.487 324.747 235.472C329.45 238.484 341.369 240.742 344.372 236.029C347.385 231.326 340.33 221.456 335.627 218.453ZM157.731 181.742C154.01 185.907 149.864 197.307 154.029 201.028C158.175 204.749 169.055 199.384 172.776 195.219C176.507 191.064 176.148 184.679 171.992 180.949C167.846 177.228 161.452 177.587 157.731 181.742Z" fill="#FFE8B6"/>
</g>
<path d="M408.333 416.333C408.333 439.896 389.229 459 365.667 459H163C139.437 459 120.333 439.896 120.333 416.333V181.667C120.333 158.104 139.437 139 163 139H365.667C389.229 139 408.333 158.104 408.333 181.667V416.333Z" fill="#3B88C3"/>
<path d="M387 416.333C387 439.896 367.896 459 344.333 459H163C139.437 459 120.333 439.896 120.333 416.333V203C120.333 179.437 139.437 160.333 163 160.333H347.907C371.469 160.333 387 175.864 387 199.427V416.333Z" fill="url(#paint5_linear_6_27)"/>
<path d="M163 139C144.995 139 144.536 118.499 152.333 109.667C161.208 99.6293 175 96.3333 199.672 96.3333H216.333V75H187.331C144.995 75 109.667 101.667 109.667 132.333V416.333C109.667 439.896 128.771 459 152.333 459H173.667V139H163Z" fill="#226699"/>
<defs>
<linearGradient id="paint0_linear_6_27" x1="280.333" y1="96.3295" x2="280.333" y2="437.667" gradientUnits="userSpaceOnUse">
<stop stop-color="#CCD6DD"/>
<stop offset="1" stop-color="#CCD6DD" stop-opacity="0"/>
</linearGradient>
<linearGradient id="paint1_linear_6_27" x1="110.118" y1="384.376" x2="110.118" y2="459" gradientUnits="userSpaceOnUse">
<stop stop-color="#66757F"/>
<stop offset="1" stop-color="#50585C"/>
<stop offset="1" stop-color="#50585C"/>
</linearGradient>
<linearGradient id="paint2_linear_6_27" x1="110.118" y1="299.043" x2="110.118" y2="373.667" gradientUnits="userSpaceOnUse">
<stop stop-color="#66757F"/>
<stop offset="1" stop-color="#50585C"/>
</linearGradient>
<linearGradient id="paint3_linear_6_27" x1="110.118" y1="213.709" x2="110.118" y2="288.333" gradientUnits="userSpaceOnUse">
<stop stop-color="#66757F"/>
<stop offset="1" stop-color="#50585C"/>
</linearGradient>
<linearGradient id="paint4_linear_6_27" x1="110.118" y1="128.376" x2="110.118" y2="203" gradientUnits="userSpaceOnUse">
<stop stop-color="#66757F"/>
<stop offset="1" stop-color="#50585C"/>
</linearGradient>
<linearGradient id="paint5_linear_6_27" x1="253.667" y1="160.333" x2="253.667" y2="459" gradientUnits="userSpaceOnUse">
<stop stop-color="#55ACEE"/>
<stop offset="1" stop-color="#55ACEE" stop-opacity="0"/>
</linearGradient>
<clipPath id="clip0_6_27">
<rect width="384" height="384" fill="white" transform="translate(67 75)"/>
</clipPath>
</defs>
</svg>
