<?xml version="1.0" encoding="UTF-8"?>
<svg fill="none" viewBox="0 0 390 390" xmlns="http://www.w3.org/2000/svg">
<path d="m40 69c0-17.673 14.327-32 32-32h235c17.673 0 32 14.327 32 32v38h-299v-38z" fill="#71CCB9"/>
<rect x="40" y="107" width="299" height="70" fill="#5EB5C7"/>
<rect x="40" y="177" width="299" height="70" fill="#54A9CE"/>
<path d="m40 247h299v75c0 17.673-14.327 32-32 32h-235c-17.673 0-32-14.327-32-32v-75z" fill="#3786E3"/>
<rect x="40" y="247" width="299" height="70" fill="#499CD5"/>
<path d="m40 69c0-17.673 14.327-32 32-32h57v317h-57c-17.673 0-32-14.327-32-32v-253z" fill="url(#d)"/>
<g filter="url(#e)">
<rect x="145" y="83" width="225" height="225" rx="32" fill="#F8FCFC"/>
</g>
<path d="m200.03 275v-161h37.49l56.12 148.81h2.99v-148.81h19.09v161h-37.49l-55.89-149.04h-3.22v149.04h-19.09z" fill="#54A9CE"/>
<path d="m65.488 117.22c-4.122 0.542-6.8012 3.698-8.7334 7.19-2.6363 4.783-8.6474 9.862-16.118 9.862-9.4805 0-17.175-6.617-17.175-14.794 0-8.176 7.6942-14.794 17.175-14.794v-19.686c-18.6 0.1973-33.637 15.534-33.637 34.48 0 19.075 15.217 34.52 33.989 34.52 15.921 0 28.742-10.307 33.499-25.337 2.3787-7.486-4.0275-12.073-8.9995-11.441z" fill="url(#c)"/>
<path d="m65.488 197.76c-4.122 0.534-6.8012 3.645-8.7334 7.085-2.6363 4.715-8.6474 9.72-16.118 9.72-9.4805 0-17.175-6.522-17.175-14.579 0-8.058 7.6942-14.58 17.175-14.58v-19.401c-18.6 0.194-33.637 15.309-33.637 33.981 0 18.798 15.217 34.019 33.989 34.019 15.921 0 28.742-10.157 33.499-24.97 2.3787-7.378-4.0275-11.897-8.9995-11.275z" fill="url(#b)"/>
<path d="m65.488 280.22c-4.122 0.542-6.8012 3.698-8.7334 7.19-2.6363 4.783-8.6474 9.862-16.118 9.862-9.4805 0-17.175-6.617-17.175-14.794 0-8.176 7.6942-14.794 17.175-14.794v-19.686c-18.6 0.197-33.637 15.534-33.637 34.48 0 19.075 15.217 34.52 33.989 34.52 15.921 0 28.742-10.307 33.499-25.337 2.3787-7.486-4.0275-12.073-8.9995-11.441z" fill="url(#a)"/>
<defs>
<filter id="e" x="133" y="83" width="249" height="249" color-interpolation-filters="sRGB" filterUnits="userSpaceOnUse">
<feFlood flood-opacity="0" result="BackgroundImageFix"/>
<feColorMatrix in="SourceAlpha" result="hardAlpha" values="0 0 0 0 0 0 0 0 0 0 0 0 0 0 0 0 0 0 127 0"/>
<feOffset dy="12"/>
<feGaussianBlur stdDeviation="6"/>
<feComposite in2="hardAlpha" operator="out"/>
<feColorMatrix values="0 0 0 0 0 0 0 0 0 0 0 0 0 0 0 0 0 0 0.1 0"/>
<feBlend in2="BackgroundImageFix" result="effect1_dropShadow_3_81"/>
<feBlend in="SourceGraphic" in2="effect1_dropShadow_3_81" result="shape"/>
</filter>
<linearGradient id="d" x1="84.5" x2="84.5" y1="37" y2="354" gradientUnits="userSpaceOnUse">
<stop stop-color="#A2D6DB" offset="0"/>
<stop stop-color="#6BB0B7" offset="1"/>
</linearGradient>
<linearGradient id="c" x1="41" x2="41" y1="85" y2="154" gradientUnits="userSpaceOnUse">
<stop stop-color="#A2D6DB" offset="0"/>
<stop stop-color="#6BB0B7" offset="1"/>
</linearGradient>
<linearGradient id="b" x1="41" x2="41" y1="166" y2="234" gradientUnits="userSpaceOnUse">
<stop stop-color="#A2D6DB" offset="0"/>
<stop stop-color="#6BB0B7" offset="1"/>
</linearGradient>
<linearGradient id="a" x1="41" x2="41" y1="248" y2="317" gradientUnits="userSpaceOnUse">
<stop stop-color="#A2D6DB" offset="0"/>
<stop stop-color="#6BB0B7" offset="1"/>
</linearGradient>
</defs>
</svg>
